<svg xmlns="http://www.w3.org/2000/svg" width="48" height="12" viewBox="0 0 48 12">
  <path fill="#00E070" d="M28.8834534,2 C31.393386,2 32.7121899,2.8073575 34.6796876,4.91552658 L35.0781525,5.34697205 L35.4401497,5.7277392 C36.6554454,6.97429997 37.3625451,7.33333333 38.6512619,7.33333333 C40.1215816,7.33333333 40.8347842,6.86600999 42.4093826,5.1464271 C42.9273913,4.58072167 43.8512414,4.50428442 44.4728596,4.97569971 C45.0944778,5.44711501 45.1784699,6.28786748 44.6604612,6.8535729 C42.5723146,9.13399001 41.2506589,10 38.6512619,10 C36.1416074,10 34.822946,9.19270811 32.8555647,7.08466022 L32.4570971,6.65321185 C31.0090945,5.09740189 30.2952015,4.66666667 28.8834534,4.66666667 C27.4719179,4.66666667 26.7578329,5.09760653 25.3106416,6.65321413 L25.125821,6.8535729 C23.0376642,9.13400117 21.7161312,10 19.11711,10 C16.6071934,10 15.2884708,9.19270349 13.3208516,7.0845024 L13.1074684,6.85362327 C11.5326844,5.13400974 10.8193804,4.66666667 9.34881313,4.66666667 C7.87849342,4.66666667 7.16529081,5.13399001 5.59069238,6.8535729 C5.0726837,7.41927833 4.14883357,7.49571558 3.52721537,7.02430029 C2.90559718,6.55288499 2.82160508,5.71213252 3.33961376,5.1464271 C5.42776038,2.86600999 6.74941613,2 9.34881313,2 C11.8587297,2 13.1774523,2.80729651 15.1450715,4.9154976 L15.3584547,5.14637673 C16.9332387,6.86599026 17.6465427,7.33333333 19.11711,7.33333333 C20.5281963,7.33333333 21.2418904,6.90263785 22.6896598,5.34699352 L22.8745579,5.14662865 C24.9615747,2.86653334 26.2839233,2 28.8834534,2 Z"/>
</svg>
