<svg width="40" height="40" viewBox="0 0 40 40" fill="none" xmlns="http://www.w3.org/2000/svg">
<rect width="40" height="40" rx="8" fill="#4B3DA3"/>
<path d="M30.6791 9.5214C30.5016 9.47919 30.3149 9.50197 30.1527 9.58562L29.0001 10.1612L27.8376 9.57999C27.7334 9.52793 27.6186 9.50082 27.5022 9.50082C27.3857 9.50082 27.2709 9.52793 27.1668 9.57999L25.9897 10.1617L24.8282 9.57999C24.7237 9.52755 24.6085 9.50023 24.4916 9.50023C24.3748 9.50023 24.2595 9.52755 24.1551 9.57999L23.0001 10.1598L21.854 9.5814C21.7498 9.52859 21.6348 9.50084 21.518 9.50035C21.4012 9.49986 21.2859 9.52665 21.1813 9.57858L20.0001 10.1622L18.8376 9.57952C18.7332 9.52748 18.6183 9.50039 18.5017 9.50039C18.3851 9.50039 18.2702 9.52748 18.1658 9.57952L17.0001 10.1612L15.8357 9.57952C15.6856 9.50428 15.5146 9.48158 15.35 9.51507C15.1855 9.54855 15.0369 9.63628 14.9282 9.76421C14.811 9.90393 14.7478 10.0811 14.7501 10.2634V21.5003L14.7524 21.5026H23.7501C24.1479 21.5026 24.5294 21.6607 24.8107 21.942C25.092 22.2233 25.2501 22.6048 25.2501 23.0026V27.8753C25.2501 29.3251 26.8002 30.5003 28.2501 30.5003H28.8126C29.459 30.5003 30.079 30.2435 30.5361 29.7864C30.9933 29.3293 31.2501 28.7093 31.2501 28.0628V10.2503C31.2502 10.0824 31.194 9.91938 31.0905 9.78723C30.987 9.65508 30.8421 9.56147 30.6791 9.5214ZM27.5001 19.2503H21.5235C21.1185 19.2503 20.7688 18.9391 20.751 18.5341C20.7464 18.4328 20.7624 18.3317 20.798 18.2369C20.8336 18.142 20.888 18.0554 20.958 17.9821C21.028 17.9089 21.1122 17.8506 21.2053 17.8107C21.2985 17.7709 21.3987 17.7503 21.5001 17.7503H27.4766C27.8816 17.7503 28.2313 18.0616 28.2491 18.4666C28.2537 18.5678 28.2377 18.6689 28.2021 18.7637C28.1665 18.8586 28.1121 18.9453 28.0421 19.0185C27.9721 19.0917 27.888 19.15 27.7948 19.1899C27.7016 19.2297 27.6014 19.2503 27.5001 19.2503ZM27.5001 15.5003H18.5235C18.1185 15.5003 17.7688 15.1891 17.751 14.7841C17.7464 14.6828 17.7624 14.5817 17.798 14.4869C17.8336 14.392 17.888 14.3054 17.958 14.2321C18.028 14.1589 18.1122 14.1006 18.2053 14.0607C18.2985 14.0209 18.3987 14.0003 18.5001 14.0003H27.4766C27.8816 14.0003 28.2313 14.3116 28.2491 14.7166C28.2537 14.8178 28.2377 14.9189 28.2021 15.0137C28.1665 15.1086 28.1121 15.1953 28.0421 15.2685C27.9721 15.3417 27.888 15.4 27.7948 15.4399C27.7016 15.4797 27.6014 15.5003 27.5001 15.5003Z" fill="white"/>
<path d="M23.75 27.875V23.75C23.75 23.5511 23.671 23.3603 23.5303 23.2197C23.3897 23.079 23.1989 23 23 23H10.25C9.85215 23.0012 9.47098 23.16 9.18988 23.4415C8.90878 23.7231 8.75062 24.1045 8.75 24.5023C8.75 26.8719 9.02094 27.8572 9.42781 28.6072C10.1183 29.8808 11.3684 30.5 13.25 30.5H24.7663C24.8032 30.5 24.8394 30.4891 24.8702 30.4686C24.901 30.4481 24.9251 30.419 24.9394 30.3849C24.9536 30.3508 24.9575 30.3132 24.9505 30.2769C24.9435 30.2405 24.9258 30.2071 24.8998 30.1808C24.4564 29.7359 23.75 29.1406 23.75 27.875Z" fill="white"/>
</svg>
