<svg width="40" height="40" viewBox="0 0 40 40" fill="none" xmlns="http://www.w3.org/2000/svg">
<rect width="40" height="40" rx="8" fill="#672E7B"/>
<path d="M11 30.5H10.25C9.85218 30.5 9.47064 30.342 9.18934 30.0607C8.90804 29.7794 8.75 29.3978 8.75 29V13.25C8.75 12.8522 8.90804 12.4706 9.18934 12.1893C9.47064 11.908 9.85218 11.75 10.25 11.75H11C11.3978 11.75 11.7794 11.908 12.0607 12.1893C12.342 12.4706 12.5 12.8522 12.5 13.25V29C12.5 29.3978 12.342 29.7794 12.0607 30.0607C11.7794 30.342 11.3978 30.5 11 30.5ZM19.25 16.25C19.25 15.8522 19.092 15.4706 18.8107 15.1893C18.5294 14.908 18.1478 14.75 17.75 14.75H14.75C14.3522 14.75 13.9706 14.908 13.6893 15.1893C13.408 15.4706 13.25 15.8522 13.25 16.25V17.5625C13.25 17.6122 13.2698 17.6599 13.3049 17.6951C13.3401 17.7302 13.3878 17.75 13.4375 17.75H19.0625C19.1122 17.75 19.1599 17.7302 19.1951 17.6951C19.2302 17.6599 19.25 17.6122 19.25 17.5625V16.25ZM13.25 29C13.25 29.3978 13.408 29.7794 13.6893 30.0607C13.9706 30.342 14.3522 30.5 14.75 30.5H17.75C18.1478 30.5 18.5294 30.342 18.8107 30.0607C19.092 29.7794 19.25 29.3978 19.25 29V27.5938C19.25 27.5689 19.2401 27.545 19.2225 27.5275C19.205 27.5099 19.1811 27.5 19.1562 27.5H13.3438C13.3189 27.5 13.295 27.5099 13.2775 27.5275C13.2599 27.545 13.25 27.5689 13.25 27.5938V29Z" fill="white"/>
<path d="M19.1562 19.25H13.3438C13.292 19.25 13.25 19.292 13.25 19.3438V25.9062C13.25 25.958 13.292 26 13.3438 26H19.1562C19.208 26 19.25 25.958 19.25 25.9062V19.3438C19.25 19.292 19.208 19.25 19.1562 19.25Z" fill="white"/>
<path d="M23 30.5H21.5C21.1022 30.5 20.7206 30.342 20.4393 30.0607C20.158 29.7794 20 29.3978 20 29V11C20 10.6022 20.158 10.2206 20.4393 9.93934C20.7206 9.65804 21.1022 9.5 21.5 9.5H23C23.3978 9.5 23.7794 9.65804 24.0607 9.93934C24.342 10.2206 24.5 10.6022 24.5 11V29C24.5 29.3978 24.342 29.7794 24.0607 30.0607C23.7794 30.342 23.3978 30.5 23 30.5ZM31.2448 28.8805L29.7341 12.943C29.6647 12.2094 28.94 11.6773 28.1155 11.7566L26.6225 11.8972C25.798 11.9755 25.1858 12.6336 25.2552 13.3672L26.7659 29.3047C26.8353 30.0383 27.56 30.5703 28.3845 30.4911L29.8775 30.3505C30.702 30.2722 31.3142 29.6141 31.2448 28.8805Z" fill="white"/>
</svg>
