<svg width="40" height="40" viewBox="0 0 40 40" fill="none" xmlns="http://www.w3.org/2000/svg">
<rect width="40" height="40" rx="8" fill="#2044C2"/>
<path d="M11.75 27.4993C11.75 28.2949 12.0661 29.058 12.6287 29.6206C13.1913 30.1832 13.9544 30.4993 14.75 30.4993H19.0625C19.1122 30.4993 19.1599 30.4795 19.1951 30.4443C19.2302 30.4092 19.25 30.3615 19.25 30.3118V21.6868C19.25 21.637 19.2302 21.5893 19.1951 21.5542C19.1599 21.519 19.1122 21.4993 19.0625 21.4993H12.125C12.0255 21.4993 11.9302 21.5388 11.8598 21.6091C11.7895 21.6794 11.75 21.7748 11.75 21.8743V27.4993ZM19.25 19.8118V14.7493H20.75V19.8118C20.75 19.8615 20.7698 19.9092 20.8049 19.9443C20.8401 19.9795 20.8878 19.9993 20.9375 19.9993H27.5C27.7555 19.9993 28.0091 19.9557 28.25 19.8704C28.6883 19.7147 29.0677 19.4274 29.3363 19.0476C29.6048 18.6679 29.7493 18.2144 29.75 17.7493V16.9993C29.75 16.4025 29.5129 15.8302 29.091 15.4083C28.669 14.9863 28.0967 14.7493 27.5 14.7493H25.5997C25.5834 14.749 25.5674 14.7445 25.5533 14.7361C25.5393 14.7278 25.5277 14.716 25.5196 14.7017C25.5116 14.6875 25.5074 14.6715 25.5074 14.6551C25.5075 14.6388 25.5118 14.6228 25.52 14.6086C25.954 13.8759 26.0949 13.0062 25.9146 12.174C25.7343 11.3417 25.246 10.6083 24.5476 10.121C23.8492 9.63364 22.9925 9.42831 22.1491 9.54616C21.3057 9.66401 20.538 10.0963 20 10.7564C19.462 10.0963 18.6943 9.66401 17.8509 9.54616C17.0075 9.42831 16.1508 9.63364 15.4524 10.121C14.754 10.6083 14.2657 11.3417 14.0854 12.174C13.9051 13.0062 14.046 13.8759 14.48 14.6086C14.4882 14.6228 14.4925 14.6388 14.4926 14.6551C14.4926 14.6715 14.4884 14.6875 14.4804 14.7017C14.4723 14.716 14.4607 14.7278 14.4467 14.7361C14.4326 14.7445 14.4166 14.749 14.4003 14.7493H12.5C11.9033 14.7493 11.331 14.9863 10.909 15.4083C10.4871 15.8302 10.25 16.4025 10.25 16.9993V17.7493C10.2507 18.2144 10.3952 18.6679 10.6637 19.0476C10.9323 19.4274 11.3117 19.7147 11.75 19.8704C11.9909 19.9557 12.2445 19.9993 12.5 19.9993H19.0625C19.1122 19.9993 19.1599 19.9795 19.1951 19.9443C19.2302 19.9092 19.25 19.8615 19.25 19.8118ZM20.75 12.8743C20.75 12.5034 20.86 12.1409 21.066 11.8326C21.272 11.5242 21.5649 11.2839 21.9075 11.142C22.2501 11.0001 22.6271 10.9629 22.9908 11.0353C23.3545 11.1076 23.6886 11.2862 23.9508 11.5484C24.213 11.8107 24.3916 12.1448 24.464 12.5085C24.5363 12.8722 24.4992 13.2492 24.3573 13.5918C24.2154 13.9344 23.975 14.2272 23.6667 14.4333C23.3584 14.6393 22.9958 14.7493 22.625 14.7493H20.75V12.8743ZM17.2409 11.0039C17.4978 10.9855 17.7557 11.0202 17.9986 11.1059C18.2415 11.1915 18.4641 11.3263 18.6526 11.5018C18.8411 11.6773 18.9914 11.8897 19.0942 12.1258C19.197 12.362 19.25 12.6167 19.25 12.8743V14.7493H17.375C16.8902 14.748 16.4247 14.559 16.0762 14.2219C15.7277 13.8848 15.5234 13.4259 15.506 12.9413C15.4887 12.4568 15.6597 11.9844 15.9832 11.6233C16.3066 11.2621 16.7574 11.0403 17.2409 11.0044V11.0039ZM20.9375 30.4993H25.25C26.0456 30.4993 26.8087 30.1832 27.3713 29.6206C27.9339 29.058 28.25 28.2949 28.25 27.4993V21.8743C28.25 21.7748 28.2105 21.6794 28.1402 21.6091C28.0698 21.5388 27.9745 21.4993 27.875 21.4993H20.9375C20.8878 21.4993 20.8401 21.519 20.8049 21.5542C20.7698 21.5893 20.75 21.637 20.75 21.6868V30.3118C20.75 30.3615 20.7698 30.4092 20.8049 30.4443C20.8401 30.4795 20.8878 30.4993 20.9375 30.4993Z" fill="white"/>
</svg>
