<svg width="40" height="40" viewBox="0 0 40 40" fill="none" xmlns="http://www.w3.org/2000/svg">
<rect width="40" height="40" rx="8" fill="#23231E"/>
<path d="M15.5004 26.235C15.262 26.2352 15.0317 26.1485 14.8525 25.9912L8.85254 20.7412C8.74701 20.6488 8.66245 20.535 8.60451 20.4072C8.54657 20.2795 8.5166 20.1408 8.5166 20.0006C8.5166 19.8603 8.54657 19.7217 8.60451 19.594C8.66245 19.4662 8.74701 19.3524 8.85254 19.26L14.8525 14.01C15.049 13.838 15.3058 13.7512 15.5663 13.7686C15.8268 13.7859 16.0697 13.9061 16.2417 14.1025C16.4136 14.299 16.5005 14.5558 16.4831 14.8163C16.4657 15.0768 16.3456 15.3198 16.1491 15.4917L10.9952 20.0006L16.1486 24.5095C16.2995 24.6414 16.4065 24.8161 16.4554 25.0104C16.5042 25.2047 16.4927 25.4093 16.4222 25.5968C16.3518 25.7844 16.2257 25.9459 16.061 26.06C15.8963 26.174 15.7007 26.235 15.5004 26.235ZM24.5004 26.235C24.3 26.2351 24.1043 26.1742 23.9395 26.0602C23.7747 25.9462 23.6486 25.7846 23.5781 25.597C23.5076 25.4095 23.496 25.2048 23.5449 25.0105C23.5937 24.8162 23.7007 24.6414 23.8516 24.5095L29.0055 20.0006L23.8521 15.4917C23.6556 15.3198 23.5354 15.0768 23.5181 14.8163C23.5007 14.5558 23.5876 14.299 23.7595 14.1025C23.9314 13.9061 24.1744 13.7859 24.4349 13.7686C24.6954 13.7512 24.9521 13.838 25.1486 14.01L31.1486 19.26C31.2542 19.3524 31.3387 19.4662 31.3967 19.594C31.4546 19.7217 31.4846 19.8603 31.4846 20.0006C31.4846 20.1408 31.4546 20.2795 31.3967 20.4072C31.3387 20.535 31.2542 20.6488 31.1486 20.7412L25.1486 25.9912C24.9694 26.1487 24.7389 26.2354 24.5004 26.235ZM17.7504 28.485C17.5971 28.4849 17.4459 28.4491 17.3089 28.3803C17.1719 28.3115 17.0528 28.2117 16.9612 28.0888C16.8697 27.9659 16.808 27.8232 16.7813 27.6723C16.7545 27.5214 16.7634 27.3662 16.8072 27.2193L21.3072 12.2193C21.3411 12.0921 21.4002 11.9729 21.481 11.8688C21.5618 11.7648 21.6627 11.678 21.7776 11.6137C21.8926 11.5494 22.0192 11.5087 22.1502 11.4943C22.2811 11.4798 22.4136 11.4917 22.5398 11.5294C22.6661 11.567 22.7834 11.6296 22.885 11.7135C22.9866 11.7973 23.0704 11.9007 23.1313 12.0175C23.1922 12.1343 23.229 12.2621 23.2396 12.3934C23.2502 12.5247 23.2344 12.6568 23.193 12.7818L18.693 27.7818C18.6325 27.9849 18.508 28.163 18.3382 28.2896C18.1684 28.4163 17.9622 28.4848 17.7504 28.485Z" fill="white"/>
</svg>
