<svg width="40" height="40" viewBox="0 0 40 40" fill="none" xmlns="http://www.w3.org/2000/svg">
<rect width="40" height="40" rx="8" fill="#20252C"/>
<g clipPath="url(#clip0_1688_28363)">
<path d="M23.75 8H16.25C15.4544 8 14.6913 8.31607 14.1287 8.87868C13.5661 9.44129 13.25 10.2044 13.25 11V29C13.25 29.7956 13.5661 30.5587 14.1287 31.1213C14.6913 31.6839 15.4544 32 16.25 32H23.75C24.5456 32 25.3087 31.6839 25.8713 31.1213C26.4339 30.5587 26.75 29.7956 26.75 29V11C26.75 10.2044 26.4339 9.44129 25.8713 8.87868C25.3087 8.31607 24.5456 8 23.75 8ZM25.25 29C25.25 29.3978 25.092 29.7794 24.8107 30.0607C24.5294 30.342 24.1478 30.5 23.75 30.5H16.25C15.8522 30.5 15.4706 30.342 15.1893 30.0607C14.908 29.7794 14.75 29.3978 14.75 29V11C14.75 10.6022 14.908 10.2206 15.1893 9.93934C15.4706 9.65804 15.8522 9.5 16.25 9.5H16.782C16.8546 9.49974 16.9256 9.52067 16.9864 9.56022C17.0472 9.59978 17.0951 9.65624 17.1242 9.72266C17.2407 9.99075 17.4329 10.219 17.6774 10.3793C17.9218 10.5396 18.2077 10.625 18.5 10.625H21.5C21.7923 10.625 22.0782 10.5396 22.3226 10.3793C22.5671 10.219 22.7593 9.99075 22.8758 9.72266C22.9049 9.65624 22.9528 9.59978 23.0136 9.56022C23.0744 9.52067 23.1454 9.49974 23.218 9.5H23.75C24.1478 9.5 24.5294 9.65804 24.8107 9.93934C25.092 10.2206 25.25 10.6022 25.25 11V29Z" fill="white"/>
<path d="M23.75 10.25C23.6636 10.2495 23.5782 10.2691 23.5007 10.3072C23.4232 10.3454 23.3556 10.4011 23.3033 10.4699C23.0939 10.7507 22.8219 10.9788 22.5088 11.1359C22.1957 11.293 21.8503 11.3749 21.5 11.375H18.5C18.1497 11.3749 17.8043 11.293 17.4912 11.1359C17.1781 10.9788 16.9061 10.7507 16.6967 10.4699C16.6444 10.4011 16.5768 10.3454 16.4993 10.3072C16.4218 10.2691 16.3364 10.2495 16.25 10.25C16.0511 10.25 15.8603 10.329 15.7197 10.4697C15.579 10.6103 15.5 10.8011 15.5 11V29C15.5 29.1989 15.579 29.3897 15.7197 29.5303C15.8603 29.671 16.0511 29.75 16.25 29.75H23.75C23.9489 29.75 24.1397 29.671 24.2803 29.5303C24.421 29.3897 24.5 29.1989 24.5 29V11C24.5 10.8011 24.421 10.6103 24.2803 10.4697C24.1397 10.329 23.9489 10.25 23.75 10.25Z" fill="white"/>
<path d="M23.75 8H16.25C15.4544 8 14.6913 8.31607 14.1287 8.87868C13.5661 9.44129 13.25 10.2044 13.25 11V29C13.25 29.7956 13.5661 30.5587 14.1287 31.1213C14.6913 31.6839 15.4544 32 16.25 32H23.75C24.5456 32 25.3087 31.6839 25.8713 31.1213C26.4339 30.5587 26.75 29.7956 26.75 29V11C26.75 10.2044 26.4339 9.44129 25.8713 8.87868C25.3087 8.31607 24.5456 8 23.75 8ZM25.25 29C25.25 29.3978 25.092 29.7794 24.8107 30.0607C24.5294 30.342 24.1478 30.5 23.75 30.5H16.25C15.8522 30.5 15.4706 30.342 15.1893 30.0607C14.908 29.7794 14.75 29.3978 14.75 29V11C14.75 10.6022 14.908 10.2206 15.1893 9.93934C15.4706 9.65804 15.8522 9.5 16.25 9.5H16.782C16.8546 9.49974 16.9256 9.52067 16.9864 9.56022C17.0472 9.59978 17.0951 9.65624 17.1242 9.72266C17.2407 9.99075 17.4329 10.219 17.6774 10.3793C17.9218 10.5396 18.2077 10.625 18.5 10.625H21.5C21.7923 10.625 22.0782 10.5396 22.3226 10.3793C22.5671 10.219 22.7593 9.99075 22.8758 9.72266C22.9049 9.65624 22.9528 9.59978 23.0136 9.56022C23.0744 9.52067 23.1454 9.49974 23.218 9.5H23.75C24.1478 9.5 24.5294 9.65804 24.8107 9.93934C25.092 10.2206 25.25 10.6022 25.25 11V29Z" fill="white"/>
</g>
<defs>
<clipPath id="clip0_1688_28363">
<rect width="24" height="24" fill="white" transform="translate(8 8)"/>
</clipPath>
</defs>
</svg>
