<svg width="40" height="40" viewBox="0 0 40 40" fill="none" xmlns="http://www.w3.org/2000/svg">
<rect width="40" height="40" rx="8" fill="#1E0565"/>
<path d="M30.6466 19.5022C29.6524 15.0074 28.1561 12.6083 25.9366 11.953C25.47 11.8162 24.9861 11.7478 24.4999 11.7501C23.8572 11.7501 23.2975 11.9066 22.7055 12.0726C21.992 12.2727 21.1816 12.5001 19.9999 12.5001C18.8181 12.5001 18.0072 12.2732 17.2924 12.073C16.6999 11.9066 16.1406 11.7501 15.4999 11.7501C14.9971 11.7483 14.4965 11.8165 14.0125 11.9526C11.8047 12.6051 10.3094 15.0032 9.30063 19.4994C8.21595 24.3379 8.74985 27.3927 10.7978 28.1015C11.0785 28.2004 11.3739 28.2514 11.6716 28.2524C13.0745 28.2524 14.1995 27.0838 14.9683 26.1271C15.8369 25.0443 16.8536 24.4949 19.9999 24.4949C22.81 24.4949 23.973 24.876 24.9775 26.1271C25.6089 26.9136 26.2056 27.464 26.8009 27.8104C27.5927 28.2707 28.3839 28.3729 29.1522 28.109C30.3625 27.696 31.0563 26.6043 31.2147 24.8633C31.3352 23.5283 31.1495 21.7747 30.6466 19.5022ZM17.7499 19.2501H16.2499V20.7501C16.2499 20.949 16.1708 21.1397 16.0302 21.2804C15.8895 21.421 15.6988 21.5001 15.4999 21.5001C15.3009 21.5001 15.1102 21.421 14.9695 21.2804C14.8289 21.1397 14.7499 20.949 14.7499 20.7501V19.2501H13.2499C13.0509 19.2501 12.8602 19.171 12.7195 19.0304C12.5789 18.8897 12.4999 18.699 12.4999 18.5001C12.4999 18.3011 12.5789 18.1104 12.7195 17.9697C12.8602 17.8291 13.0509 17.7501 13.2499 17.7501H14.7499V16.2501C14.7499 16.0511 14.8289 15.8604 14.9695 15.7197C15.1102 15.5791 15.3009 15.5001 15.4999 15.5001C15.6988 15.5001 15.8895 15.5791 16.0302 15.7197C16.1708 15.8604 16.2499 16.0511 16.2499 16.2501V17.7501H17.7499C17.9488 17.7501 18.1395 17.8291 18.2802 17.9697C18.4208 18.1104 18.4999 18.3011 18.4999 18.5001C18.4999 18.699 18.4208 18.8897 18.2802 19.0304C18.1395 19.171 17.9488 19.2501 17.7499 19.2501ZM21.6874 19.4376C21.5019 19.4376 21.3207 19.3826 21.1665 19.2796C21.0123 19.1765 20.8922 19.0301 20.8212 18.8588C20.7503 18.6875 20.7317 18.499 20.7679 18.3172C20.804 18.1353 20.8933 17.9683 21.0244 17.8371C21.1556 17.706 21.3226 17.6167 21.5045 17.5806C21.6863 17.5444 21.8748 17.563 22.0461 17.6339C22.2174 17.7049 22.3638 17.825 22.4669 17.9792C22.5699 18.1334 22.6249 18.3146 22.6249 18.5001C22.6249 18.7487 22.5261 18.9872 22.3503 19.163C22.1745 19.3388 21.936 19.4376 21.6874 19.4376ZM23.7499 21.5001C23.5643 21.5001 23.383 21.445 23.2288 21.3419C23.0745 21.2388 22.9544 21.0922 22.8835 20.9208C22.8126 20.7493 22.7942 20.5607 22.8305 20.3788C22.8669 20.1969 22.9564 20.0298 23.0878 19.8988C23.2191 19.7678 23.3864 19.6787 23.5684 19.6428C23.7504 19.6069 23.939 19.6258 24.1102 19.6971C24.2815 19.7684 24.4278 19.8889 24.5305 20.0434C24.6332 20.1979 24.6878 20.3794 24.6874 20.5649C24.6867 20.8131 24.5877 21.051 24.4119 21.2263C24.2362 21.4016 23.9981 21.5001 23.7499 21.5001ZM23.7499 17.3751C23.5644 17.3751 23.3832 17.3201 23.229 17.2171C23.0748 17.114 22.9547 16.9676 22.8837 16.7963C22.8128 16.625 22.7942 16.4365 22.8304 16.2547C22.8665 16.0728 22.9558 15.9058 23.0869 15.7746C23.2181 15.6435 23.3851 15.5542 23.567 15.5181C23.7488 15.4819 23.9373 15.5005 24.1086 15.5714C24.2799 15.6424 24.4263 15.7625 24.5294 15.9167C24.6324 16.0709 24.6874 16.2521 24.6874 16.4376C24.6874 16.6862 24.5886 16.9247 24.4128 17.1005C24.237 17.2763 23.9985 17.3751 23.7499 17.3751ZM25.8124 19.4376C25.6269 19.4376 25.4457 19.3826 25.2915 19.2796C25.1373 19.1765 25.0172 19.0301 24.9462 18.8588C24.8753 18.6875 24.8567 18.499 24.8929 18.3172C24.929 18.1353 25.0183 17.9683 25.1494 17.8371C25.2806 17.706 25.4476 17.6167 25.6295 17.5806C25.8113 17.5444 25.9998 17.563 26.1711 17.6339C26.3424 17.7049 26.4888 17.825 26.5919 17.9792C26.6949 18.1334 26.7499 18.3146 26.7499 18.5001C26.7499 18.7487 26.6511 18.9872 26.4753 19.163C26.2994 19.3388 26.061 19.4376 25.8124 19.4376Z" fill="white"/>
</svg>
