<svg width="40" height="40" viewBox="0 0 40 40" fill="none" xmlns="http://www.w3.org/2000/svg">
<rect width="40" height="40" rx="8" fill="#71C220"/>
<path d="M26.3279 30.4996C25.4129 30.4996 24.1276 30.1686 22.2029 29.0933C19.8624 27.7808 18.0521 26.5691 15.7243 24.2474C13.4799 22.0044 12.3878 20.5522 10.8592 17.7707C9.13229 14.63 9.42667 12.9838 9.75573 12.2802C10.1476 11.4393 10.726 10.9363 11.4737 10.4371C11.8984 10.1588 12.3478 9.92032 12.8162 9.72457C12.8631 9.70441 12.9067 9.68519 12.9456 9.66785C13.1776 9.56332 13.5292 9.40535 13.9745 9.5741C14.2717 9.68566 14.537 9.91394 14.9523 10.3241C15.804 11.1641 16.9679 13.0349 17.3973 13.9536C17.6856 14.5728 17.8764 14.9816 17.8768 15.44C17.8768 15.9768 17.6068 16.3907 17.2792 16.8374C17.2178 16.9213 17.1568 17.0014 17.0978 17.0793C16.741 17.548 16.6628 17.6835 16.7143 17.9253C16.8189 18.4114 17.5984 19.8585 18.8795 21.1368C20.1606 22.415 21.5659 23.1453 22.0539 23.2494C22.306 23.3033 22.4443 23.2218 22.9281 22.8524C22.9974 22.7994 23.0687 22.7446 23.1432 22.6897C23.6429 22.318 24.0376 22.055 24.5617 22.055H24.5645C25.0206 22.055 25.411 22.2528 26.0579 22.5791C26.9017 23.0047 28.8287 24.1536 29.6739 25.0063C30.0849 25.4207 30.3142 25.685 30.4262 25.9818C30.5949 26.4285 30.436 26.7786 30.3324 27.013C30.3151 27.0519 30.2959 27.0946 30.2757 27.1419C30.0784 27.6095 29.8385 28.058 29.559 28.4816C29.0607 29.2269 28.5559 29.8039 27.7131 30.1963C27.2803 30.401 26.8066 30.5047 26.3279 30.4996Z" fill="white"/>
</svg>
