<svg width="40" height="40" viewBox="0 0 40 40" fill="none" xmlns="http://www.w3.org/2000/svg">
<rect width="40" height="40" rx="8" fill="#E91F43"/>
<path d="M19.9995 29C19.6985 28.9996 19.4045 28.9086 19.1558 28.7389C15.4719 26.2381 13.8767 24.5234 12.9969 23.4514C11.1219 21.1663 10.2242 18.8202 10.2495 16.2795C10.2791 13.3681 12.6149 11 15.4564 11C17.5227 11 18.9538 12.1639 19.7872 13.1333C19.8136 13.1637 19.8462 13.1881 19.8829 13.2048C19.9195 13.2215 19.9593 13.2301 19.9995 13.2301C20.0398 13.2301 20.0796 13.2215 20.1162 13.2048C20.1529 13.1881 20.1855 13.1637 20.2119 13.1333C21.0453 12.163 22.4764 11 24.5427 11C27.3842 11 29.72 13.3681 29.7495 16.28C29.7749 18.8211 28.8763 21.1672 27.0022 23.4519C26.1224 24.5239 24.5272 26.2386 20.8433 28.7394C20.5946 28.9089 20.3006 28.9998 19.9995 29Z" fill="white"/>
</svg>
