<svg width="40" height="40" viewBox="0 0 40 40" fill="none" xmlns="http://www.w3.org/2000/svg">
<rect width="40" height="40" rx="8" fill="#7764EA"/>
<g clipPath="url(#clip0_1720_32665)">
<path d="M31.25 26.75H29.9216C30.2943 26.3368 30.5005 25.7999 30.5 25.2434V14.0066C30.4993 13.4083 30.2613 12.8348 29.8382 12.4118C29.4152 11.9887 28.8417 11.7507 28.2434 11.75H11.7566C11.1583 11.7507 10.5848 11.9887 10.1618 12.4118C9.73873 12.8348 9.50074 13.4083 9.5 14.0066V25.2434C9.49953 25.7999 9.70566 26.3368 10.0784 26.75H8.75C8.55109 26.75 8.36032 26.829 8.21967 26.9697C8.07902 27.1103 8 27.3011 8 27.5C8 27.6989 8.07902 27.8897 8.21967 28.0303C8.36032 28.171 8.55109 28.25 8.75 28.25H31.25C31.4489 28.25 31.6397 28.171 31.7803 28.0303C31.921 27.8897 32 27.6989 32 27.5C32 27.3011 31.921 27.1103 31.7803 26.9697C31.6397 26.829 31.4489 26.75 31.25 26.75Z" fill="white"/>
</g>
<defs>
<clipPath id="clip0_1720_32665">
<rect width="24" height="24" fill="white" transform="translate(8 8)"/>
</clipPath>
</defs>
</svg>
