<svg width="40" height="40" viewBox="0 0 40 40" fill="none" xmlns="http://www.w3.org/2000/svg">
<rect width="40" height="40" rx="8" fill="#67A528"/>
<path d="M15.5637 19.3433C15.6313 19.2716 15.7122 19.2138 15.8021 19.1734C15.8919 19.133 15.9888 19.1107 16.0873 19.1077C16.1858 19.1048 16.2838 19.1212 16.3759 19.1562C16.468 19.1911 16.5523 19.2439 16.6241 19.3114C20.0755 22.5627 23.5386 24.5408 27.6139 25.5491C28.1637 24.0491 28.2125 22.3981 27.7376 20.7875C27.1076 18.6505 25.6405 16.7886 23.4959 15.4034C21.5816 14.1669 19.6681 13.8449 17.817 13.5336C15.4817 13.1408 13.2758 12.7695 11.1706 10.5406C10.9362 10.2941 10.617 10.1952 10.3119 10.2753C9.96311 10.3691 9.72921 10.6447 9.61718 11.1003C9.35468 12.1667 9.52343 15.1555 10.2617 18.3106C11.4472 23.3797 13.3391 25.9447 14.7176 27.2042C16.4989 28.8303 18.8248 29.7308 21.1362 29.7308C21.5719 29.7315 22.007 29.6995 22.438 29.6352C24.3931 29.3389 26.0206 28.3569 26.938 26.9281C22.7431 25.8369 19.1595 23.7617 15.5942 20.405C15.5224 20.3374 15.4646 20.2562 15.4242 20.1662C15.3837 20.0762 15.3615 19.9791 15.3586 19.8805C15.3558 19.7818 15.3725 19.6836 15.4077 19.5914C15.4429 19.4993 15.4959 19.4149 15.5637 19.3433ZM29.9112 26.0084C29.1223 25.887 28.3583 25.7347 27.6144 25.5505C27.4614 25.968 27.2711 26.3709 27.0458 26.7542C27.0116 26.8128 26.9755 26.8709 26.9384 26.9281C27.8432 27.1624 28.7594 27.3501 29.6834 27.4906C29.7817 27.5079 29.8825 27.5054 29.9799 27.4832C30.0772 27.461 30.1691 27.4197 30.2503 27.3615C30.3314 27.3033 30.4001 27.2296 30.4523 27.1445C30.5046 27.0594 30.5393 26.9648 30.5545 26.8661C30.5697 26.7675 30.5651 26.6668 30.5408 26.5699C30.5166 26.4731 30.4733 26.382 30.4134 26.3022C30.3535 26.2223 30.2783 26.1551 30.1922 26.1047C30.106 26.0543 30.0107 26.0216 29.9117 26.0084H29.9112Z" fill="white"/>
</svg>
