<svg width="40" height="40" viewBox="0 0 40 40" fill="none" xmlns="http://www.w3.org/2000/svg">
<rect width="40" height="40" rx="8" fill="#FF4E4E"/>
<path d="M16.617 30.4997C16.0719 30.4988 15.5411 30.3257 15.1002 30.0052C14.7598 29.7593 14.4827 29.4362 14.2914 29.0624C14.1002 28.6887 14.0003 28.2749 14 27.855C13.9988 27.3615 14.1526 26.88 14.4397 26.4785C14.7269 26.0771 15.1328 25.776 15.6003 25.6177L17.9844 24.8152C18.1356 24.7635 18.2668 24.6656 18.3594 24.5353C18.4519 24.405 18.5011 24.2489 18.5 24.0891V12.3122C18.4993 11.978 18.6099 11.653 18.8144 11.3886C19.0189 11.1242 19.3056 10.9355 19.6292 10.8521L24.71 9.53299C24.8624 9.49348 25.0218 9.4894 25.1761 9.52105C25.3303 9.55271 25.4752 9.61925 25.5998 9.71559C25.7243 9.81193 25.8251 9.9355 25.8945 10.0768C25.9639 10.2182 26 10.3735 26 10.531V13.238C26.0009 13.5732 25.8898 13.8992 25.6842 14.1641C25.4787 14.429 25.1906 14.6176 24.8656 14.7L20.5695 15.7842C20.4055 15.8269 20.2604 15.9231 20.1572 16.0576C20.054 16.1921 19.9987 16.3572 20 16.5267V27.8747C20.0013 28.3485 19.8536 28.8108 19.5779 29.1961C19.3022 29.5814 18.9123 29.8703 18.4634 30.0221L17.457 30.361C17.1865 30.4526 16.9027 30.4995 16.617 30.4997Z" fill="white"/>
</svg>
