<svg width="40" height="40" viewBox="0 0 40 40" fill="none" xmlns="http://www.w3.org/2000/svg">
<rect width="40" height="40" rx="8" fill="#D9D45C"/>
<path d="M23.7497 23.7505H9.49972C9.36879 23.7508 9.24007 23.7168 9.12635 23.6519C9.01264 23.587 8.91789 23.4935 8.85153 23.3806C8.78517 23.2678 8.7495 23.1395 8.74809 23.0086C8.74668 22.8777 8.77956 22.7486 8.84347 22.6344L15.9685 9.88438C16.0335 9.76783 16.1285 9.67076 16.2437 9.60319C16.3588 9.53562 16.4898 9.5 16.6233 9.5C16.7568 9.5 16.8879 9.53562 17.003 9.60319C17.1181 9.67076 17.2131 9.76783 17.2782 9.88438L24.4032 22.6344C24.4669 22.7484 24.4998 22.8772 24.4985 23.0079C24.4973 23.1386 24.4618 23.2666 24.3958 23.3794C24.3298 23.4922 24.2354 23.5858 24.1221 23.6508C24.0088 23.7159 23.8804 23.7503 23.7497 23.7505Z" fill="white"/>
<path d="M23.7502 15.5C23.2373 15.4999 22.7257 15.552 22.2234 15.6556L25.7142 21.9027C25.9055 22.2451 26.004 22.6316 25.9998 23.0238C25.9957 23.416 25.8891 23.8003 25.6906 24.1387C25.4921 24.477 25.2086 24.7575 24.8682 24.9524C24.5278 25.1474 24.1424 25.25 23.7502 25.25H16.5938C17.0096 26.5723 17.7837 27.7534 18.8302 28.6624C19.8767 29.5713 21.1546 30.1724 22.522 30.3991C23.8895 30.6257 25.293 30.469 26.5767 29.9462C27.8605 29.4235 28.9743 28.5552 29.7944 27.4378C30.6146 26.3204 31.1091 24.9976 31.2229 23.6161C31.3368 22.2347 31.0656 20.8488 30.4395 19.6121C29.8134 18.3755 28.8568 17.3366 27.676 16.6107C26.4952 15.8848 25.1363 15.5003 23.7502 15.5Z" fill="white"/>
</svg>
