<svg width="40" height="40" viewBox="0 0 40 40" fill="none" xmlns="http://www.w3.org/2000/svg">
<rect width="40" height="40" rx="8" fill="#1E201D"/>
<path d="M28.25 20.7499C27.7849 20.7506 27.3314 20.8951 26.9516 21.1637C26.5719 21.4322 26.2845 21.8116 26.1289 22.2499H24.2905L22.9616 18.2627C22.9109 18.1108 22.8129 17.9791 22.682 17.8869C22.551 17.7947 22.394 17.7468 22.2339 17.7503C22.0738 17.7537 21.919 17.8083 21.7922 17.9061C21.6653 18.0039 21.5731 18.1397 21.5291 18.2937L19.4427 25.5949L16.9897 10.8762C16.9612 10.7062 16.8751 10.5513 16.7459 10.4373C16.6166 10.3234 16.4521 10.2575 16.2799 10.2506C16.1077 10.2437 15.9385 10.2963 15.8005 10.3996C15.6626 10.5029 15.5644 10.6505 15.5225 10.8176L12.6645 22.2499H10.25C10.0511 22.2499 9.86032 22.3289 9.71967 22.4696C9.57902 22.6103 9.5 22.801 9.5 22.9999C9.5 23.1988 9.57902 23.3896 9.71967 23.5303C9.86032 23.6709 10.0511 23.7499 10.25 23.7499H13.25C13.4172 23.7499 13.5797 23.694 13.7115 23.591C13.8433 23.4881 13.9369 23.3441 13.9775 23.1818L16.1028 14.6801L18.5103 29.1232C18.5381 29.2914 18.6223 29.4451 18.749 29.559C18.8758 29.6729 19.0376 29.7403 19.2078 29.7499H19.2505C19.4133 29.7498 19.5717 29.6967 19.7017 29.5986C19.8316 29.5005 19.9262 29.3627 19.9709 29.2062L22.3053 21.0368L23.0384 23.2371C23.0882 23.3865 23.1837 23.5163 23.3114 23.6084C23.4391 23.7004 23.5926 23.7499 23.75 23.7499H26.1289C26.2664 24.1388 26.5082 24.4825 26.8278 24.7433C27.1474 25.004 27.5326 25.1719 27.9412 25.2286C28.3498 25.2853 28.7661 25.2285 29.1446 25.0645C29.5231 24.9006 29.8493 24.6357 30.0874 24.2989C30.3256 23.9621 30.4665 23.5662 30.4949 23.1547C30.5233 22.7432 30.438 22.3318 30.2483 21.9655C30.0587 21.5991 29.7719 21.292 29.4195 21.0776C29.0671 20.8633 28.6625 20.7499 28.25 20.7499Z" fill="white"/>
</svg>
