<svg width="40" height="40" viewBox="0 0 40 40" fill="none" xmlns="http://www.w3.org/2000/svg">
<rect width="40" height="40" rx="8" fill="#58AC04"/>
<path d="M29 26.75H11C10.8011 26.75 10.6103 26.671 10.4697 26.5303C10.329 26.3897 10.25 26.1989 10.25 26C10.25 25.8011 10.329 25.6103 10.4697 25.4697C10.6103 25.329 10.8011 25.25 11 25.25H29C29.1989 25.25 29.3897 25.329 29.5303 25.4697C29.671 25.6103 29.75 25.8011 29.75 26C29.75 26.1989 29.671 26.3897 29.5303 26.5303C29.3897 26.671 29.1989 26.75 29 26.75ZM27.5 29H12.5C12.3011 29 12.1103 28.921 11.9697 28.7803C11.829 28.6397 11.75 28.4489 11.75 28.25C11.75 28.0511 11.829 27.8603 11.9697 27.7197C12.1103 27.579 12.3011 27.5 12.5 27.5H27.5C27.6989 27.5 27.8897 27.579 28.0303 27.7197C28.171 27.8603 28.25 28.0511 28.25 28.25C28.25 28.4489 28.171 28.6397 28.0303 28.7803C27.8897 28.921 27.6989 29 27.5 29ZM9.5 20.75H8.75V23C8.75 23.3978 8.90804 23.7794 9.18934 24.0607C9.47064 24.342 9.85218 24.5 10.25 24.5H12.5V23.75C12.4991 22.9546 12.1828 22.1921 11.6204 21.6296C11.0579 21.0672 10.2954 20.7509 9.5 20.75Z" fill="white"/>
<path d="M30.5 19.25H31.25V16.25H30.5C29.3069 16.2486 28.1631 15.7741 27.3195 14.9305C26.4759 14.0869 26.0014 12.9431 26 11.75V11H14V11.75C13.9986 12.9431 13.5241 14.0869 12.6805 14.9305C11.8369 15.7741 10.6931 16.2486 9.5 16.25H8.75V19.25H9.5C10.6931 19.2514 11.8369 19.7259 12.6805 20.5695C13.5241 21.4131 13.9986 22.5569 14 23.75V24.5H26V23.75C26.0014 22.5569 26.4759 21.4131 27.3195 20.5695C28.1631 19.7259 29.3069 19.2514 30.5 19.25ZM20 22.25C19.11 22.25 18.24 21.9861 17.4999 21.4916C16.7599 20.9971 16.1831 20.2943 15.8425 19.4721C15.5019 18.6498 15.4128 17.745 15.5865 16.8721C15.7601 15.9992 16.1887 15.1974 16.818 14.568C17.4474 13.9387 18.2492 13.5101 19.1221 13.3365C19.995 13.1628 20.8998 13.2519 21.7221 13.5925C22.5443 13.9331 23.2471 14.5099 23.7416 15.2499C24.2361 15.99 24.5 16.86 24.5 17.75C24.4986 18.9431 24.0241 20.0869 23.1805 20.9305C22.3369 21.7741 21.1931 22.2486 20 22.25Z" fill="white"/>
<path d="M20 20.75C21.6569 20.75 23 19.4069 23 17.75C23 16.0931 21.6569 14.75 20 14.75C18.3431 14.75 17 16.0931 17 17.75C17 19.4069 18.3431 20.75 20 20.75Z" fill="white"/>
<path d="M27.5 23.75V24.5H29.75C30.1478 24.5 30.5294 24.342 30.8107 24.0607C31.092 23.7794 31.25 23.3978 31.25 23V20.75H30.5C29.7046 20.7509 28.9421 21.0672 28.3796 21.6296C27.8172 22.1921 27.5009 22.9546 27.5 23.75ZM30.5 14.75H31.25V12.5C31.25 12.1022 31.092 11.7206 30.8107 11.4393C30.5294 11.158 30.1478 11 29.75 11H27.5V11.75C27.5009 12.5454 27.8172 13.3079 28.3796 13.8704C28.9421 14.4328 29.7046 14.7491 30.5 14.75ZM12.5 11.75V11H10.25C9.85218 11 9.47064 11.158 9.18934 11.4393C8.90804 11.7206 8.75 12.1022 8.75 12.5V14.75H9.5C10.2954 14.7491 11.0579 14.4328 11.6204 13.8704C12.1828 13.3079 12.4991 12.5454 12.5 11.75Z" fill="white"/>
</svg>
