<svg width="40" height="40" viewBox="0 0 40 40" fill="none" xmlns="http://www.w3.org/2000/svg">
<rect width="40" height="40" rx="8" fill="#35312F"/>
<path d="M20 10.25C14.6239 10.25 10.25 14.6239 10.25 20C10.25 25.3761 14.6239 29.75 20 29.75C25.3761 29.75 29.75 25.3761 29.75 20C29.75 14.6239 25.3761 10.25 20 10.25ZM23.5048 20.4359L18.14 23.6769C18.0631 23.7229 17.9753 23.7477 17.8857 23.7487C17.7961 23.7496 17.7078 23.7267 17.6299 23.6823C17.5521 23.6379 17.4874 23.5736 17.4426 23.4959C17.3978 23.4183 17.3745 23.3301 17.375 23.2405V16.7595C17.3745 16.6699 17.3978 16.5817 17.4426 16.5041C17.4874 16.4264 17.5521 16.3621 17.6299 16.3177C17.7078 16.2733 17.7961 16.2504 17.8857 16.2513C17.9753 16.2523 18.0631 16.2771 18.14 16.3231L23.5048 19.5641C23.5796 19.6096 23.6414 19.6737 23.6843 19.75C23.7272 19.8263 23.7497 19.9124 23.7497 20C23.7497 20.0876 23.7272 20.1737 23.6843 20.25C23.6414 20.3264 23.5796 20.3904 23.5048 20.4359Z" fill="white"/>
</svg>
