<svg width="40" height="40" viewBox="0 0 40 40" fill="none" xmlns="http://www.w3.org/2000/svg">
<rect width="40" height="40" rx="8" fill="#DBAC32"/>
<path d="M27.8802 17H24.8751L20.6001 11.3C20.5302 11.2069 20.4396 11.1313 20.3355 11.0792C20.2313 11.0271 20.1165 11 20.0001 11C19.8836 11 19.7688 11.0271 19.6647 11.0792C19.5605 11.1313 19.4699 11.2069 19.4001 11.3L15.1251 17H12.1199C11.7156 16.9994 11.3276 17.1591 11.041 17.4442C10.7543 17.7292 10.5925 18.1164 10.5908 18.5206C10.59 18.6635 10.6107 18.8058 10.6523 18.9425L12.8212 26.5897C12.9622 27.0881 13.2621 27.5268 13.6754 27.8391C14.0886 28.1514 14.5926 28.3202 15.1105 28.3198H24.8896C25.4076 28.3182 25.9112 28.1491 26.3252 27.8377C26.7392 27.5263 27.0413 27.0893 27.1865 26.592L29.3582 18.9345C29.3682 18.8983 29.3754 18.8613 29.3798 18.8239L29.4046 18.5928C29.4074 18.5687 29.4088 18.5444 29.4088 18.5202C29.4071 18.1161 29.2452 17.7291 28.9587 17.4442C28.6721 17.1592 28.2843 16.9995 27.8802 17ZM20.0001 13.0002L23.0001 17H17.0001L20.0001 13.0002ZM20.0001 24.4845C19.6509 24.4829 19.3101 24.3778 19.0206 24.1826C18.7311 23.9874 18.5059 23.7108 18.3734 23.3878C18.241 23.0647 18.2072 22.7097 18.2763 22.3674C18.3454 22.0252 18.5144 21.7111 18.7619 21.4648C19.0094 21.2185 19.3243 21.051 19.6668 20.9835C20.0094 20.916 20.3643 20.9515 20.6867 21.0855C21.0091 21.2195 21.2846 21.446 21.4784 21.7364C21.6723 22.0269 21.7757 22.3682 21.7757 22.7173C21.7731 23.1865 21.5849 23.6356 21.2521 23.9664C20.9194 24.2972 20.4692 24.4828 20.0001 24.4827V24.4845Z" fill="white"/>
</svg>
