<svg width="40" height="40" viewBox="0 0 40 40" fill="none" xmlns="http://www.w3.org/2000/svg">
<rect width="40" height="40" rx="8" fill="#E120EB"/>
<path d="M16.7473 29.75H15.4995C15.3741 29.75 15.2508 29.7185 15.1407 29.6585C15.0306 29.5984 14.9373 29.5118 14.8694 29.4064C14.8015 29.301 14.761 29.1803 14.7518 29.0552C14.7426 28.9302 14.7648 28.8048 14.8165 28.6906L17.8381 22.0227L13.3011 21.9219L11.6464 23.9267C11.3309 24.3233 11.0792 24.5 10.437 24.5H9.59702C9.46402 24.5043 9.33195 24.4764 9.212 24.4188C9.09205 24.3612 8.98776 24.2755 8.90796 24.1691C8.79639 24.0186 8.68671 23.7636 8.79358 23.3998L9.72264 20.0717C9.72967 20.0469 9.73811 20.022 9.74749 19.9977C9.74795 19.9953 9.74795 19.9929 9.74749 19.9906C9.73781 19.9663 9.72951 19.9414 9.72264 19.9161L8.79264 16.5669C8.69186 16.2102 8.80202 15.9608 8.91264 15.8141C8.98693 15.7155 9.08331 15.6357 9.19403 15.5812C9.30475 15.5266 9.42672 15.4988 9.55014 15.5H10.437C10.9165 15.5 11.382 15.7152 11.6558 16.0625L13.2762 18.0336L17.8381 17.9661L14.8175 11.3098C14.7657 11.1957 14.7433 11.0704 14.7525 10.9453C14.7616 10.8203 14.802 10.6996 14.8698 10.5941C14.9376 10.4887 15.0308 10.402 15.1408 10.3419C15.2508 10.2817 15.3742 10.2502 15.4995 10.25H16.7609C16.9369 10.2535 17.1098 10.2967 17.2669 10.3762C17.4239 10.4557 17.561 10.5696 17.668 10.7094L23.5297 17.8344L26.2376 17.7631C26.4359 17.7523 26.9853 17.7486 27.1123 17.7486C29.7026 17.75 31.2495 18.5909 31.2495 20C31.2495 20.4434 31.0723 21.2656 29.8869 21.7887C29.187 22.0981 28.2533 22.2547 27.1114 22.2547C26.9858 22.2547 26.4378 22.2509 26.2367 22.2402L23.5292 22.168L17.653 29.293C17.5459 29.4321 17.4089 29.5454 17.2522 29.6246C17.0954 29.7037 16.9229 29.7465 16.7473 29.75Z" fill="white"/>
</svg>
