<svg width="40" height="40" viewBox="0 0 40 40" fill="none" xmlns="http://www.w3.org/2000/svg">
<rect width="40" height="40" rx="8" fill="#57A806"/>
<path d="M12.4766 12.8741H27.4766C27.6518 12.8741 27.8268 12.8852 28.0006 12.9074C27.9417 12.4939 27.7997 12.0965 27.583 11.7394C27.3664 11.3822 27.0797 11.0726 26.7402 10.8293C26.4007 10.5859 26.0154 10.4138 25.6076 10.3234C25.1998 10.2329 24.7779 10.226 24.3673 10.303L12.0312 12.4091H12.0172C11.2428 12.5572 10.5542 12.9953 10.092 13.634C10.7884 13.1387 11.622 12.873 12.4766 12.8741ZM27.4766 13.9991H12.4766C11.6812 14 10.9186 14.3164 10.3562 14.8788C9.79378 15.4412 9.47743 16.2038 9.47656 16.9991V25.9991C9.47743 26.7945 9.79378 27.5571 10.3562 28.1195C10.9186 28.6819 11.6812 28.9983 12.4766 28.9991H27.4766C28.2719 28.9983 29.0345 28.6819 29.5969 28.1195C30.1593 27.5571 30.4757 26.7945 30.4766 25.9991V16.9991C30.4757 16.2038 30.1593 15.4412 29.5969 14.8788C29.0345 14.3164 28.2719 14 27.4766 13.9991ZM25.25 22.9991C24.9533 22.9991 24.6633 22.9112 24.4166 22.7463C24.17 22.5815 23.9777 22.3473 23.8642 22.0732C23.7506 21.7991 23.7209 21.4975 23.7788 21.2065C23.8367 20.9155 23.9796 20.6483 24.1893 20.4385C24.3991 20.2287 24.6664 20.0858 24.9574 20.028C25.2483 19.9701 25.5499 19.9998 25.824 20.1133C26.0981 20.2269 26.3324 20.4191 26.4972 20.6658C26.662 20.9125 26.75 21.2025 26.75 21.4991C26.75 21.897 26.592 22.2785 26.3107 22.5598C26.0294 22.8411 25.6478 22.9991 25.25 22.9991Z" fill="white"/>
<path d="M9.5 20.1641V15.5C9.5 14.4842 10.0625 12.7812 12.0148 12.4123C13.6719 12.1016 15.3125 12.1016 15.3125 12.1016C15.3125 12.1016 16.3906 12.8516 15.5 12.8516C14.6094 12.8516 14.6328 14 15.5 14C16.3672 14 15.5 15.1016 15.5 15.1016L12.0078 19.0625L9.5 20.1641Z" fill="white"/>
</svg>
